<?xml version="1.0" encoding="UTF-8"?>
<svg width="662px" height="481px" viewBox="0 0 662 481" version="1.1" xmlns="http://www.w3.org/2000/svg" xmlns:xlink="http://www.w3.org/1999/xlink">
    <!-- Generator: Sketch 44.1 (41455) - http://www.bohemiancoding.com/sketch -->
    <title>icon_grid_all</title>
    <desc>Created with Sketch.</desc>
    <defs></defs>
    <g id="home" stroke="none" stroke-width="1" fill="none" fill-rule="evenodd">
        <g id="Desktop-HD-Copy-10" transform="translate(-611.000000, -1353.000000)" stroke-width="0.2" stroke="#999999">
            <g id="icon_grid_all" transform="translate(612.000000, 1354.000000)">
                <g id="icon_grid" transform="translate(360.000000, 180.000000)">
                    <polygon id="Stroke-1" points="0.0495867769 119.057851 119.057851 119.057851 119.057851 0.0495867769 0.0495867769 0.0495867769"></polygon>
                    <polygon id="Stroke-3" points="14.9256198 104.181818 104.181818 104.181818 104.181818 14.9256198 14.9256198 14.9256198"></polygon>
                </g>
                <g id="icon_grid" transform="translate(540.000000, 180.000000)">
                    <polygon id="Stroke-1" points="0.0495867769 119.057851 119.057851 119.057851 119.057851 0.0495867769 0.0495867769 0.0495867769"></polygon>
                    <polygon id="Stroke-3" points="14.9256198 104.181818 104.181818 104.181818 104.181818 14.9256198 14.9256198 14.9256198"></polygon>
                </g>
                <g id="icon_grid" transform="translate(180.000000, 180.000000)">
                    <polygon id="Stroke-1" points="0.0495867769 119.057851 119.057851 119.057851 119.057851 0.0495867769 0.0495867769 0.0495867769"></polygon>
                    <polygon id="Stroke-3" points="14.9256198 104.181818 104.181818 104.181818 104.181818 14.9256198 14.9256198 14.9256198"></polygon>
                </g>
                <g id="icon_grid" transform="translate(540.000000, 360.000000)">
                    <polygon id="Stroke-1" points="0.0495867769 119.057851 119.057851 119.057851 119.057851 0.0495867769 0.0495867769 0.0495867769"></polygon>
                    <polygon id="Stroke-3" points="14.9256198 104.181818 104.181818 104.181818 104.181818 14.9256198 14.9256198 14.9256198"></polygon>
                </g>
                <g id="icon_grid" transform="translate(360.000000, 360.000000)">
                    <polygon id="Stroke-1" points="0.0495867769 119.057851 119.057851 119.057851 119.057851 0.0495867769 0.0495867769 0.0495867769"></polygon>
                    <polygon id="Stroke-3" points="14.9256198 104.181818 104.181818 104.181818 104.181818 14.9256198 14.9256198 14.9256198"></polygon>
                </g>
                <g id="icon_grid" transform="translate(180.000000, 360.000000)">
                    <polygon id="Stroke-1" points="0.0495867769 119.057851 119.057851 119.057851 119.057851 0.0495867769 0.0495867769 0.0495867769"></polygon>
                    <polygon id="Stroke-3" points="14.9256198 104.181818 104.181818 104.181818 104.181818 14.9256198 14.9256198 14.9256198"></polygon>
                </g>
                <g id="icon_grid" transform="translate(0.000000, 360.000000)">
                    <polygon id="Stroke-1" points="0.0495867769 119.057851 119.057851 119.057851 119.057851 0.0495867769 0.0495867769 0.0495867769"></polygon>
                    <polygon id="Stroke-3" points="14.9256198 104.181818 104.181818 104.181818 104.181818 14.9256198 14.9256198 14.9256198"></polygon>
                </g>
                <g id="icon_grid" transform="translate(540.000000, 0.000000)">
                    <polygon id="Stroke-1" points="0.0499435163 119.914383 119.914383 119.914383 119.914383 0.0499435163 0.0499435163 0.0499435163"></polygon>
                    <polygon id="Stroke-3" points="15.0329984 104.931328 104.931328 104.931328 104.931328 15.0329984 15.0329984 15.0329984"></polygon>
                </g>
                <g id="icon_grid" transform="translate(360.000000, 0.000000)">
                    <polygon id="Stroke-1" points="0.0499435163 119.914383 119.914383 119.914383 119.914383 0.0499435163 0.0499435163 0.0499435163"></polygon>
                    <polygon id="Stroke-3" points="15.0329984 104.931328 104.931328 104.931328 104.931328 15.0329984 15.0329984 15.0329984"></polygon>
                </g>
            </g>
        </g>
    </g>
</svg>