<?xml version="1.0" encoding="UTF-8"?>
<svg width="651px" height="61px" viewBox="0 0 651 61" version="1.1" xmlns="http://www.w3.org/2000/svg" xmlns:xlink="http://www.w3.org/1999/xlink">
    <!-- Generator: Sketch 44.1 (41455) - http://www.bohemiancoding.com/sketch -->
    <title>flexibleLogo</title>
    <desc>Created with Sketch.</desc>
    <defs></defs>
    <g id="home" stroke="none" stroke-width="1" fill="none" fill-rule="evenodd">
        <g id="Desktop-HD-Copy-8" transform="translate(-395.000000, -1935.000000)">
            <g id="flexibleLogo" transform="translate(395.000000, 1935.000000)">
                <polygon id="Fill-1" fill="#FF704F" points="0.220715753 60.3593714 55.7831199 60.3593714 55.7831199 43.4073714 0.220715753 43.4073714"></polygon>
                <polygon id="Fill-2" fill="#3F82AB" points="0.220715753 16.9512571 55.7831199 16.9512571 55.7831199 0 0.220715753 0"></polygon>
                <path d="M0.236098973,43.3884286 L11.4821983,56.0734571 L55.7672908,16.8535714 L44.5219346,4.16854286 L0.236098973,43.3884286 Z M4.29370171,43.6328286 L44.2759517,8.22454286 L51.7089449,16.6084286 L11.727438,52.0174571 L4.29370171,43.6328286 Z" id="Fill-3" fill="#212121"></path>
                <polygon id="Fill-4" fill="#FF704F" points="85.2260068 60.3593714 140.787668 60.3593714 140.787668 43.4073714 85.2260068 43.4073714"></polygon>
                <polygon id="Fill-5" fill="#3F82AB" points="85.2260068 16.9512571 140.787668 16.9512571 140.787668 0 85.2260068 0"></polygon>
                <path d="M132.837813,11.3822057 L138.701272,20.9294057 L93.1751182,48.8600914 L87.3116592,39.3128914 L132.837813,11.3822057 Z M133.783844,7.43020571 L83.3580976,38.3672343 L92.2290873,52.8113486 L142.654834,21.8750629 L133.783844,7.43020571 Z" id="Fill-6" fill="#212121"></path>
                <polygon id="Fill-7" fill="#FF704F" points="170.230555 60.3593714 225.792216 60.3593714 225.792216 43.4073714 170.230555 43.4073714"></polygon>
                <polygon id="Fill-8" fill="#3F82AB" points="170.230555 16.9512571 225.792216 16.9512571 225.792216 0 170.230555 0"></polygon>
                <path d="M220.796534,15.1091943 L224.912102,25.5292514 L175.225791,45.1325086 L171.110222,34.7131943 L220.796534,15.1091943 Z M222.414373,11.3815371 L167.380349,33.0952514 L173.607952,48.8601657 L228.641976,27.1464514 L222.414373,11.3815371 Z" id="Fill-9" fill="#212121"></path>
                <polygon id="Fill-10" fill="#FF704F" points="255.235103 60.3593714 310.796764 60.3593714 310.796764 43.4073714 255.235103 43.4073714"></polygon>
                <polygon id="Fill-11" fill="#3F82AB" points="255.235103 16.9512571 310.797507 16.9512571 310.797507 0 255.235103 0"></polygon>
                <path d="M309.563579,23.8044857 L309.866042,35.0030571 L256.468436,36.4375143 L256.165973,25.2389429 L309.563579,23.8044857 Z M312.359312,20.8546 L253.214922,22.4435714 L253.672703,39.3874 L312.817093,37.7984286 L312.359312,20.8546 Z" id="Fill-12" fill="#212121"></path>
                <polygon id="Fill-13" fill="#FF704F" points="340.240394 60.3593714 395.802055 60.3593714 395.802055 43.4073714 340.240394 43.4073714"></polygon>
                <polygon id="Fill-14" fill="#3F82AB" points="340.240394 16.9512571 395.802055 16.9512571 395.802055 0 340.240394 0"></polygon>
                <path d="M395.262304,28.50848 L393.614739,39.58968 L340.779698,31.7332229 L342.42652,20.6527657 L395.262304,28.50848 Z M398.528452,26.0889943 L340.006078,17.3879086 L337.513551,34.1527086 L396.035181,42.8545371 L398.528452,26.0889943 Z" id="Fill-15" fill="#212121"></path>
                <polygon id="Fill-16" fill="#FF704F" points="425.244942 60.3593714 480.806603 60.3593714 480.806603 43.4073714 425.244942 43.4073714"></polygon>
                <polygon id="Fill-17" fill="#3F82AB" points="425.244942 16.9512571 480.806603 16.9512571 480.806603 0 425.244942 0"></polygon>
                <path d="M480.074376,33.7340343 L476.342274,44.29672 L425.976722,26.5082629 L429.709568,15.9448343 L480.074376,33.7340343 Z M483.741825,31.9816343 L427.956476,12.2780914 L422.309274,28.25992 L478.095366,47.9634629 L483.741825,31.9816343 Z" id="Fill-18" fill="#212121"></path>
                <polygon id="Fill-19" fill="#FF704F" points="510.24949 60.3593714 565.811151 60.3593714 565.811151 43.4073714 510.24949 43.4073714"></polygon>
                <polygon id="Fill-20" fill="#3F82AB" points="510.24949 16.9512571 565.811894 16.9512571 565.811894 0 510.24949 0"></polygon>
                <path d="M562.4287,42.3398857 L555.459433,51.1130286 L513.63194,17.9021143 L520.601207,9.12897143 L562.4287,42.3398857 Z M566.466981,41.8770857 L520.138224,5.09154286 L509.593659,18.3649143 L555.922416,55.1504571 L566.466981,41.8770857 Z" id="Fill-21" fill="#212121"></path>
                <polygon id="Fill-22" fill="#FF704F" points="595.254038 60.3593714 650.815699 60.3593714 650.815699 43.4073714 595.254038 43.4073714"></polygon>
                <polygon id="Fill-23" fill="#3F82AB" points="595.254038 16.9512571 650.815699 16.9512571 650.815699 0 595.254038 0"></polygon>
                <path d="M644.940201,46.3892743 L636.553002,53.8193314 L601.129982,13.8528743 L609.517923,6.42281714 L644.940201,46.3892743 Z M648.997803,46.6344171 L609.76242,2.36607429 L597.072379,13.6077314 L636.307762,57.8753314 L648.997803,46.6344171 Z" id="Fill-24" fill="#212121"></path>
            </g>
        </g>
    </g>
</svg>