<?xml version="1.0" encoding="UTF-8"?>
<svg width="139px" height="176px" viewBox="0 0 139 176" version="1.1" xmlns="http://www.w3.org/2000/svg" xmlns:xlink="http://www.w3.org/1999/xlink">
    <!-- Generator: Sketch 44.1 (41455) - http://www.bohemiancoding.com/sketch -->
    <title>logo_zcrowd</title>
    <desc>Created with Sketch.</desc>
    <defs>
        <polygon id="path-1" points="20.54101 23.8504673 0.778811243 23.8504673 0.778811243 0.533099065 20.54101 0.533099065"></polygon>
        <polygon id="path-3" points="20.209284 22.7044935 20.209284 0.0342130841 0.582401775 0.0342130841 0.582401775 22.7044935 20.209284 22.7044935"></polygon>
    </defs>
    <g id="home" stroke="none" stroke-width="1" fill="none" fill-rule="evenodd">
        <g id="Desktop-HD-Copy-8" transform="translate(-350.000000, -1376.000000)">
            <g id="logo_zcrowd" transform="translate(350.000000, 1376.000000)">
                <polygon id="Fill-1" fill="#FF704F" points="15.6486036 116.65757 122.997728 116.65757 122.997728 83.8952523 15.6486036 83.8952523"></polygon>
                <polygon id="Fill-2" fill="#4183AC" points="15.6486036 32.7623178 122.99855 32.7623178 122.99855 2.84217094e-14 15.6486036 2.84217094e-14"></polygon>
                <path d="M101.240938,8.05734579 L15.6786243,83.8565981 L37.406216,108.373234 L122.96853,32.5739813 L101.240938,8.05734579 Z M100.767186,15.8967477 L115.127778,32.1002617 L37.8799675,100.534654 L23.5185533,84.3303178 L100.767186,15.8967477 Z" id="Fill-3" fill="#212121"></path>
                <g id="Group-19" transform="translate(0.000000, 151.812336)">
                    <path d="M0,22.328314 L10.3123195,5.07044486 L10.3123195,4.94132336 L0.585609467,4.94132336 C0.264017751,4.94132336 0,4.67732336 0,4.35575327 L0,1.44270654 C0,1.12031402 0.264017751,0.857136449 0.585609467,0.857136449 L16.2786272,0.857136449 C16.6010414,0.857136449 16.8642367,1.12031402 16.8642367,1.44270654 L16.8642367,1.89339813 L6.68186982,19.3782579 L6.68186982,19.4432299 L16.2490178,19.4432299 C16.6051538,19.4432299 16.8642367,19.7343701 16.8642367,20.0584075 L16.8642367,22.9114168 C16.8642367,23.2354542 16.6051538,23.5265944 16.2490178,23.5265944 L0.400550296,23.5265944 C0.18012426,23.5265944 0,23.3464822 0,23.1268935 L0,22.328314 Z" id="Fill-4" fill="#212121"></path>
                    <g id="Group-8" transform="translate(18.094675, 0.000000)">
                        <mask id="mask-2" fill="white">
                            <use xlink:href="#path-1"></use>
                        </mask>
                        <g id="Clip-7"></g>
                        <path d="M12.4704385,0.533099065 C15.7414621,0.533099065 18.1061071,1.56936075 20.3079,3.54483738 C20.5998822,3.8039028 20.5998822,4.19291215 20.3399769,4.45197757 L18.3651899,6.49160374 C18.138184,6.75066916 17.8149473,6.75066916 17.5558645,6.49160374 C16.1946515,5.29414579 14.3818941,4.58109907 12.5674917,4.58109907 C8.42134379,4.58109907 5.34524911,8.04681869 5.34524911,12.1268935 C5.34524911,16.1757159 8.45506568,19.6085383 12.6003911,19.6085383 C14.5431012,19.6085383 16.1946515,18.8634168 17.5558645,17.7621832 C17.8149473,17.5351925 18.1702609,17.5680897 18.3651899,17.7621832 L20.3736988,19.8347065 C20.6327817,20.0616972 20.5669828,20.4827813 20.3399769,20.7089495 C18.138184,22.8464449 15.3524266,23.8506318 12.4704385,23.8506318 C5.99336746,23.8506318 0.778811243,18.7013981 0.778811243,12.2239402 C0.778811243,5.74730467 5.99336746,0.533099065 12.4704385,0.533099065" id="Fill-6" fill="#212121" mask="url(#mask-2)"></path>
                    </g>
                    <path d="M52.0356781,11.1877607 C53.7522047,11.1877607 55.2425479,9.69834019 55.2425479,7.88488224 C55.2425479,6.16847103 53.7522047,4.74402243 52.0356781,4.74402243 L46.9222876,4.74402243 L46.9222876,11.1877607 L52.0356781,11.1877607 Z M42.6790864,1.47239626 C42.6790864,1.14918131 42.9381692,0.856396262 43.2943053,0.856396262 L52.3918142,0.856396262 C56.2788793,0.856396262 59.4528497,3.96600374 59.4528497,7.81991028 C59.4528497,10.7995738 57.4764178,13.2282093 54.6585834,14.3623402 L59.0958911,22.5874617 C59.322897,23.0085458 59.0958911,23.5266766 58.5456485,23.5266766 L55.1446722,23.5266766 C54.8535124,23.5266766 54.6914828,23.3646579 54.6265065,23.2355364 L50.3191515,14.6534804 L46.8893882,14.6534804 L46.8893882,22.9114991 C46.8893882,23.2355364 46.5982284,23.5266766 46.2741692,23.5266766 L43.2943053,23.5266766 C42.9381692,23.5266766 42.6790864,23.2355364 42.6790864,22.9114991 L42.6790864,1.47239626 Z" id="Fill-9" fill="#212121"></path>
                    <g id="Group-13" transform="translate(62.508876, 0.000000)" fill="#212121">
                        <path d="M11.7490367,19.6405308 C15.8302083,19.6405308 19.1982852,16.3047551 19.1982852,12.2238579 C19.1982852,8.14378318 15.8302083,4.74385794 11.7490367,4.74385794 C7.66786509,4.74385794 4.33186509,8.14378318 4.33186509,12.2238579 C4.33186509,16.3047551 7.66786509,19.6405308 11.7490367,19.6405308 M11.7490367,0.533016822 C18.2269302,0.533016822 23.408587,5.74722243 23.408587,12.2238579 C23.408587,18.7013159 18.2269302,23.8505495 11.7490367,23.8505495 C5.27196568,23.8505495 0.121563314,18.7013159 0.121563314,12.2238579 C0.121563314,5.74722243 5.27196568,0.533016822 11.7490367,0.533016822" id="Fill-11"></path>
                    </g>
                    <path d="M87.9921817,1.63474393 C87.862229,1.18158505 88.1213118,0.856725234 88.5753237,0.856725234 L91.5543651,0.856725234 C91.8134479,0.856725234 92.0725308,1.08371589 92.1375071,1.31070654 L95.5064065,14.5625196 L95.6355367,14.5625196 L100.613217,1.38554766 C100.678193,1.19063178 100.840223,1.02861308 101.16346,1.02861308 L102.089578,1.02861308 C102.41446,1.02861308 102.575667,1.19063178 102.641466,1.38554766 L107.651223,14.5625196 L107.780353,14.5625196 L111.084276,1.31070654 C111.149253,1.08371589 111.408336,0.856725234 111.667418,0.856725234 L114.64646,0.856725234 C115.099649,0.856725234 115.358732,1.18158505 115.229602,1.63474393 L109.438483,23.3978841 C109.37433,23.6561271 109.115247,23.8502206 108.856164,23.8502206 L107.340324,23.8502206 C107.048341,23.8502206 106.854235,23.6890243 106.789259,23.4941084 L101.659418,9.6559028 L101.497389,9.6559028 L96.4325249,23.4941084 C96.3346491,23.6890243 96.0401994,23.8502206 95.7169627,23.8502206 L94.366442,23.8502206 C94.1065367,23.8502206 93.8482763,23.6561271 93.7824775,23.3978841 L87.9921817,1.63474393 Z" id="Fill-14" fill="#212121"></path>
                    <g id="Group-18" transform="translate(118.437870, 0.822430)">
                        <mask id="mask-4" fill="white">
                            <use xlink:href="#path-3"></use>
                        </mask>
                        <g id="Clip-17"></g>
                        <path d="M8.45276272,18.7535402 C12.6630645,18.7535402 15.7399817,15.5789607 15.7399817,11.3368673 C15.7399817,7.1268486 12.6630645,3.95391402 8.45276272,3.95391402 L4.76062663,3.95391402 L4.76062663,18.7535402 L8.45276272,18.7535402 Z M0.582401775,0.650213084 C0.582401775,0.326175701 0.841484615,0.0342130841 1.16554379,0.0342130841 L8.84097574,0.0342130841 C15.0918633,0.0342130841 20.2093663,5.1192972 20.2093663,11.3368673 C20.2093663,17.6194093 15.0918633,22.7044935 8.84097574,22.7044935 L1.16554379,22.7044935 C0.841484615,22.7044935 0.582401775,22.4133533 0.582401775,22.0893159 L0.582401775,0.650213084 Z" id="Fill-16" fill="#212121" mask="url(#mask-4)"></path>
                    </g>
                </g>
            </g>
        </g>
    </g>
</svg>